<svg version="1.2" xmlns="http://www.w3.org/2000/svg" viewBox="0 0 24 24" width="24" height="24"><style></style><path  d="m18.8 15.6c-0.3 0-0.5-0.2-0.5-0.5 0-0.3 0.2-0.5 0.5-0.5 0.3 0 0.5 0.2 0.5 0.5 0 0.3-0.2 0.5-0.5 0.5z"/><path  d="m5.3 15.6c-0.2 0-0.5-0.2-0.5-0.5 0-0.3 0.3-0.5 0.5-0.5 0.3 0 0.6 0.2 0.6 0.5 0 0.3-0.3 0.5-0.6 0.5z"/><path fill-rule="evenodd" d="m23.8 14.1c0 0.8-0.7 1.5-1.5 1.5h-0.8c-0.2 1.3-1.4 2.3-2.7 2.3-1.4 0-2.5-1-2.8-2.3h-7.9c-0.3 1.3-1.4 2.3-2.8 2.3-1.3 0-2.4-1-2.7-2.3h-0.9c-0.9 0-1.6-0.7-1.6-1.5 0-2 1.5-4 3.6-4.7 1.2-1.8 3.1-2.9 5.1-3.2q0 0 0 0 0.5-0.1 1.1-0.1h1.6c2.2 0 4.3 0.9 5.8 2.5l0.6 0.7 2.1 0.3c2.2 0.4 3.8 2.2 3.8 4.5zm-13.9-7q-0.1 0-0.2 0l0.8 2.2h6c-1.3-1.4-3.1-2.2-5-2.2zm-4.7 2.2h4.2l-0.8-2c-1.3 0.3-2.5 0.9-3.4 2zm1.9 5.8c0-1-0.8-1.8-1.7-1.8-1 0-1.8 0.8-1.8 1.8 0 1 0.8 1.7 1.8 1.7 0.9 0 1.7-0.7 1.7-1.7zm13.5 0c0-1-0.8-1.8-1.8-1.8-1 0-1.7 0.8-1.7 1.8 0 1 0.7 1.7 1.7 1.7 1 0 1.8-0.7 1.8-1.7z"/></svg>