<svg version="1.2" xmlns="http://www.w3.org/2000/svg" viewBox="0 0 684 684" width="684" height="684"><style>.a{fill:#928e8e}.b{fill:#fff}.c{fill:#909090}</style><path class="a" d="m341.7 0c-188.7 0-341.7 153-341.7 341.7 0 188.7 153 341.7 341.7 341.7 188.7 0 341.7-153 341.7-341.7 0-188.7-153-341.7-341.7-341.7z"/><path class="b" d="m343.9 66.4c-152.8 0-276.7 123.9-276.7 276.8 0 152.8 123.9 276.7 276.7 276.7 152.9 0 276.8-123.9 276.8-276.7 0-152.9-123.9-276.8-276.8-276.8z"/><path class="c" d="m93.7 158l440.6 440.7 57.7-55.9-439.8-444.1z"/><path fill-rule="evenodd" d="m165.5 474.3c-3.2-2.3-3.5-4.3-3.5-26v-27.6c-12 0-18.8 0-19-0.1-0.8-0.1-2.3-1.2-3.4-2.3-1.8-1.9-2-2.7-2.2-7.5-0.3-6.2 0.7-8.9 4.2-11 0.4-0.3 0.8-0.5 2.2-0.6-0.3-2.1-0.9-12.4-1.4-16-0.6-3.9-1.4-9-1.8-11.2-1.7-10.9-2.6-19-2.6-22.9-0.1-9.1 3.7-19.9 9.7-28 2.9-3.9 10.4-11 13.1-12.5 0.8-0.4 4.7-8.7 10.2-21.6 4.9-11.4 10.6-24.7 12.7-29.4 2.1-4.8 8.9-20.7 15.3-35.4l11.5-26.8 127.2-0.2c101.2-0.1 127.3 0 127.8 0.7 0.4 0.5 1.5 2.7 2.5 5 0.9 2.2 4.2 9.8 7.2 16.8 3 7 7.2 16.9 9.4 22 4.1 9.8 6.7 15.6 11.3 25.9 1.5 3.5 2.8 6.5 2.8 6.7 0 0.2 0.7 2 1.6 4 1.6 3.5 8.6 19.8 11.6 27.2 1.2 2.8 2.5 4.4 5.4 6.6 14.6 11.4 22.3 28.8 19.9 45.4-0.8 6-3.2 20.6-4.8 29.2l-1.2 14.8c6 0.6 4.8 1.5 5.6 3q1 2 1 7.6c0 5.8-0.9 8.3-3.6 9.7-0.3 0.2-6.7 0.3-19.7 0.4v17.9c0.1 33.2 0.1 33-4.6 35.9-2 1.3-3.6 1.4-27.1 1.3-20.4 0-25.3-0.2-26.8-1-3.1-1.6-3.4-3.8-3.4-25.8v-28c-29.3 0.1-67.1 0.2-113.9 0.2-42.8 0.1-82.5 0.1-114.9 0.1v27.1c0 21.9 0 22.2-4.1 25.7l-2.2 1.8h-25.2c-22.2 0-25.4-0.2-26.8-1.1zm27.2-97.5c17.7-4.7 26.5-23.9 18.4-40.2-3-6-6.8-9.7-12.7-12.7-16.6-8.2-36.5 1.8-40 20.1-3.7 20 15 38 34.3 32.8zm306.5-0.9c7.1-2.7 14.1-9.7 16.7-16.7 1.2-3.4 1.4-5.1 1.2-11.1-0.2-6-0.5-7.6-2.2-11-8.7-17.9-31.8-21.6-45.8-7.4-5.5 5.6-7.8 11.3-7.8 19.6 0 7.5 1.7 12.4 6 17.7 7.9 9.6 20.7 13.1 31.9 8.9zm-87.6-23.1l-74.5-0.9h-73.6l-14.9 37.8 178.3-0.4zm80.9-46.5c0-0.8-0.5-2.3-1-3.3-0.6-1-2.1-4.3-3.4-7.3-4-9.7-17-39.7-19.4-44.9-0.6-1.3-2-4.4-3-6.9-3.2-7.6-6.6-15.4-8.1-18.7-0.8-1.7-2.1-4.8-2.9-6.9-0.8-2-1.8-4.1-2.2-4.5-0.6-0.7-24.2-0.9-114.3-0.9h-113.6l-1.1 1.6c-0.5 0.8-1.9 3.7-3 6.3-2.2 5.3-7.8 18-14.8 33.5-2.5 5.6-4.5 10.3-4.5 10.5 0 0.1-1.6 3.6-3.4 7.7-5.1 11.1-14.3 32.1-14.8 33.8l-0.5 1.4h310z"/></svg>