<svg version="1.2" xmlns="http://www.w3.org/2000/svg" viewBox="0 0 24 24" width="24" height="24"><style>.a{fill:none}</style><path class="a" d="m24 0v24h-24v-24z"/><path  d="m8 18q-0.2 0-0.4-0.1-0.2-0.1-0.3-0.2-0.1-0.1-0.2-0.3-0.1-0.2-0.1-0.4v-14q0-0.2 0.1-0.4 0.1-0.2 0.2-0.3 0.1-0.1 0.3-0.2 0.2-0.1 0.4-0.1 0.2 0 0.4 0.1 0.2 0.1 0.3 0.2 0.1 0.1 0.2 0.3 0.1 0.2 0.1 0.4v14q0 0.2-0.1 0.4-0.1 0.2-0.2 0.3-0.1 0.1-0.3 0.2-0.2 0.1-0.4 0.1z"/><path  d="m12 18q-0.2 0-0.4-0.1-0.2-0.1-0.3-0.2-0.1-0.1-0.2-0.3-0.1-0.2-0.1-0.4v-14q0-0.2 0.1-0.4 0.1-0.2 0.2-0.3 0.1-0.1 0.3-0.2 0.2-0.1 0.4-0.1 0.2 0 0.4 0.1 0.2 0.1 0.3 0.2 0.1 0.1 0.2 0.3 0.1 0.2 0.1 0.4v14q0 0.2-0.1 0.4-0.1 0.2-0.2 0.3-0.1 0.1-0.3 0.2-0.2 0.1-0.4 0.1z"/><path  d="m16 18q-0.2 0-0.4-0.1-0.2-0.1-0.3-0.2-0.1-0.1-0.2-0.3-0.1-0.2-0.1-0.4v-14q0-0.2 0.1-0.4 0.1-0.2 0.2-0.3 0.1-0.1 0.3-0.2 0.2-0.1 0.4-0.1 0.2 0 0.4 0.1 0.2 0.1 0.3 0.2 0.1 0.1 0.2 0.3 0.1 0.2 0.1 0.4v14q0 0.2-0.1 0.4-0.1 0.2-0.2 0.3-0.1 0.1-0.3 0.2-0.2 0.1-0.4 0.1z"/><path  d="m19.9 13q-0.2 0-0.4 0.1-0.1 0.1-0.3 0.3-0.1 0.1-0.1 0.3-0.1 0.2-0.1 0.4v5.9h-14v-5.9q0-0.2-0.1-0.4 0-0.2-0.1-0.3-0.2-0.2-0.3-0.3-0.2-0.1-0.3-0.1-0.3 0-0.5 0-0.2 0.1-0.4 0.2-0.1 0.2-0.2 0.4-0.1 0.2-0.1 0.4v7q0 0.2 0.1 0.4 0.1 0.2 0.2 0.3 0.1 0.1 0.3 0.2 0.2 0.1 0.4 0.1h16q0.2 0 0.4-0.1 0.2-0.1 0.3-0.2 0.1-0.1 0.2-0.3 0.1-0.2 0.1-0.4v-7q0-0.2-0.1-0.4-0.1-0.2-0.2-0.4-0.2-0.1-0.4-0.2-0.2 0-0.4 0z"/><path  d="m4.9 7.8l-3.7-2.3q-0.2-0.1-0.2 0.2v4.6q0 0.3 0.2 0.2l3.7-2.3q0.3-0.2 0-0.4z"/><path  d="m22.9 7.8l-3.6-2.3q-0.3-0.1-0.3 0.2v4.6q0 0.3 0.3 0.2l3.6-2.3q0.3-0.2 0-0.4z"/></svg>